<?xml version="1.0" standalone="no"?><!DOCTYPE svg PUBLIC "-//W3C//DTD SVG 1.1//EN" "http://www.w3.org/Graphics/SVG/1.1/DTD/svg11.dtd"><svg t="1570592055794" class="icon" viewBox="0 0 1029 1024" version="1.1" xmlns="http://www.w3.org/2000/svg" p-id="1078" xmlns:xlink="http://www.w3.org/1999/xlink" width="200.9765625" height="200"><defs><style type="text/css"></style></defs><path d="M894.062135 578.110191a25.599369 25.599369 0 0 1 25.599369 33.739968 473.741922 473.741922 0 0 1-238.432523 275.244416 25.599369 25.599369 0 0 1-22.834637-46.078864 421.928799 421.928799 0 0 0 212.372365-245.139558 25.599369 25.599369 0 0 1 23.295426-17.765962z" fill="#CDB288" p-id="1079"></path><path d="M512.017153 1024a511.98738 511.98738 0 0 1-511.98738-511.98738 25.087382 25.087382 0 1 1 50.123564 0 461.863815 461.863815 0 1 0 112.176435-301.714162 25.087382 25.087382 0 0 1-37.938264-32.767193A511.98738 511.98738 0 1 1 512.017153 1024z" p-id="1080"></path><path d="M283.005198 252.588615h-0.307193L115.943716 250.899057a25.036183 25.036183 0 0 1-24.780189-25.599369l1.791955-166.805488a25.087382 25.087382 0 0 1 25.087382-24.780189h0.255994a25.087382 25.087382 0 0 1 24.780189 25.599369l-1.535962 141.718106 141.718106 1.535962a25.087382 25.087382 0 0 1 0 50.123565zM705.394786 606.935081H318.588321a25.087382 25.087382 0 0 1 0-50.174764h386.806465a25.087382 25.087382 0 1 1 0 50.174764z" p-id="1081"></path><path d="M512.017153 843.985237a25.087382 25.087382 0 0 1-25.087382-25.087381V432.091391a25.087382 25.087382 0 0 1 50.123564 0v386.806465a25.036183 25.036183 0 0 1-25.036182 25.087381zM512.017153 392.258772a24.933785 24.933785 0 0 1-17.714764-7.372618L375.162926 265.79789A25.087382 25.087382 0 0 1 410.592453 230.419562l101.4247 101.322302L613.390654 230.419562a25.087382 25.087382 0 1 1 35.429526 35.480725L529.57832 384.886154a25.036183 25.036183 0 0 1-17.561167 7.372618z" p-id="1082"></path><path d="M705.394786 457.178772H318.588321a25.087382 25.087382 0 0 1 0-50.123564h386.806465a25.087382 25.087382 0 1 1 0 50.123564z" p-id="1083"></path></svg>