<?xml version="1.0" standalone="no"?><!DOCTYPE svg PUBLIC "-//W3C//DTD SVG 1.1//EN" "http://www.w3.org/Graphics/SVG/1.1/DTD/svg11.dtd"><svg t="1570592060331" class="icon" viewBox="0 0 1024 1024" version="1.1" xmlns="http://www.w3.org/2000/svg" p-id="1200" xmlns:xlink="http://www.w3.org/1999/xlink" width="200" height="200"><defs><style type="text/css"></style></defs><path d="M459.092905 972.864176H151.559188c-48.671446 0-88.512209-41.072951-88.512209-92.414138V25.670594l-25.157182 24.849135h734.178992c48.722788 0 88.717573 41.380998 88.717573 92.414139v346.912409a24.951817 24.951817 0 1 0 49.852294 0V143.139233c0-78.397994-61.866132-142.471797-138.621208-142.471798H12.937979V880.501379c0 78.346653 61.609426 142.215092 138.621209 142.215091h308.047129a24.951817 24.951817 0 0 0 0-49.852294z m0 0" p-id="1201"></path><path d="M188.422161 374.790674h569.88719a24.951817 24.951817 0 1 0 0-49.852293h-569.88719a24.951817 24.951817 0 0 0 0 49.852293z m0 0M191.245926 225.028428h569.88719a24.951817 24.951817 0 1 0 0-49.903635h-569.88719a24.951817 24.951817 0 1 0 0 49.903635z m0 0M760.825069 1022.71647a249.31281 249.31281 0 1 0-249.31281-249.261469 249.261469 249.261469 0 0 0 249.31281 249.261469z m0-49.852294a199.460516 199.460516 0 1 1 199.409175-199.409175 199.409175 199.409175 0 0 1-199.409175 199.409175z m0 0" p-id="1202"></path><path d="M618.764001 791.065029l70.542793 70.491451a49.800953 49.800953 0 0 0 70.542792 0l144.371422-144.371421a24.951817 24.951817 0 0 0-35.271397-35.271396l-144.371421 144.371421-70.491451-70.542793a24.951817 24.951817 0 1 0-35.271397 35.271397z m0 0" fill="#CDB288" p-id="1203"></path></svg>